# xmcd
#
# Track frame offsets:
#	150
#	11816
#	22523
#	34550
#	47371
#	59060
#	70870
#	82199
#	95685
#	107905
#	120458
#	132968
#	145445
#	157580
#	170724
#	183095
#
# Disc length: 2611 seconds
#
# Revision: 1
# Processed by: cddbd v1.5.1PL0 Copyright (c) Steve Scherf et al.
# Submitted via: audiograbber 1.83.01
#
DISCID=cf0a3110
DTITLE=Brownie McGhee - Coal Miner Blues
DYEAR=1900
DGENRE=
TTITLE0=Prison Woman Blues
TTITLE1=Swing, Soldier, Swing
TTITLE2=Key The Highway
TTITLE3=I'm A Black Woman's Man
TTITLE4=My Barkin' Bulldog Blues
TTITLE5=I'm Callin' Daisy
TTITLE6=Got To Find My Little Woman
TTITLE7=Death Of Blind Boy Fuller
TTITLE8=So Much Trouble
TTITLE9=Key To My Door
TTITLE10=Working Man's Blues
TTITLE11=Unfair Blues
TTITLE12=Let Tell You 'bout My Baby
TTITLE13=Back Home Blues
TTITLE14=Coal Miner Blues
TTITLE15=Born For But Luck
EXTD=
EXTT0=
EXTT1=
EXTT2=
EXTT3=
EXTT4=
EXTT5=
EXTT6=
EXTT7=
EXTT8=
EXTT9=
EXTT10=
EXTT11=
EXTT12=
EXTT13=
EXTT14=
EXTT15=
PLAYORDER=
